<svg width="48" height="48" viewBox="0 0 48 48" fill="none" xmlns="http://www.w3.org/2000/svg">
<rect width="48" height="48" rx="24" fill="#090909"/>
<path fill-rule="evenodd" clip-rule="evenodd" d="M24.9379 31.4969V31.5222L24.9494 31.5222L24.9379 31.5351L24.938 38.9712C24.6278 38.9903 24.315 39 24 39C23.685 39 23.3722 38.9903 23.062 38.9712L23.0621 33.6381L22.7137 34.0241C21.2933 35.5942 20.159 36.8034 19.3106 37.6518L19.199 37.7629L19.0585 37.9015L18.96 37.9977L18.8587 38.0958C18.1897 37.8522 17.543 37.562 16.9225 37.2295L17.0846 37.1074C17.9929 36.421 18.7251 35.8297 19.2814 35.3332L19.3857 35.2393L19.5121 35.1238L19.6391 35.006L19.747 34.9046C20.0031 34.6627 20.2897 34.3837 20.6065 34.0675L20.7538 33.92C21.4029 33.2681 22.1724 32.4688 23.0621 31.5222V31.4969H24.9379ZM29.9641 28.638L29.982 28.6559L29.9901 28.6478L29.9911 28.665L35.2506 33.9244C35.0965 34.0988 34.9384 34.2696 34.7765 34.4367L34.4429 34.7702C34.2737 34.9343 34.1005 35.0944 33.9237 35.2504L30.1518 31.4785L30.1784 31.9977L30.2032 32.505L30.224 32.9532L30.2408 33.3316C30.305 34.8218 30.3372 36.0344 30.3372 36.9693L30.3368 37.1268L30.3359 37.2755C30.335 37.388 30.3336 37.497 30.3316 37.6023C29.6943 37.8998 29.0324 38.1535 28.35 38.3598L28.3782 38.1588C28.5351 37.031 28.6347 36.0949 28.677 35.3504L28.6844 35.2103L28.6891 35.1088C28.7382 33.9964 28.727 32.2876 28.6556 29.9822L28.6377 29.9644L29.9641 28.638ZM12.6498 28.6773L12.79 28.6847L12.9611 28.6924L13.0988 28.6976L13.2082 28.7012C14.3181 28.7359 15.9213 28.7208 18.018 28.6559L18.0359 28.638L19.3623 29.9644L19.3444 29.9822L19.3525 29.9904L19.3353 29.9914L14.0763 35.2504C13.8995 35.0944 13.7263 34.9343 13.5571 34.7702L13.2235 34.4367C13.0616 34.2696 12.9035 34.0988 12.7494 33.9244L16.5218 30.1521L16.0025 30.1787C13.9126 30.2833 12.2694 30.3362 11.073 30.3374L10.8735 30.3371L10.6761 30.3358L10.5385 30.3342L10.3944 30.3318C10.0965 29.6943 9.84244 29.0322 9.6357 28.3495L9.90331 28.387C11.0036 28.539 11.919 28.6358 12.6498 28.6773ZM31.5219 23.0509L31.5348 23.0624L38.9778 23.0622C38.988 23.2285 38.9954 23.3955 39.0002 23.5631V24.4244C38.9953 24.5964 38.9876 24.7677 38.977 24.9382L33.6379 24.9381L34.0239 25.2865L34.4001 25.6277L34.735 25.9328C35.9638 27.0552 36.936 27.9742 37.6515 28.6897L37.7627 28.8013C37.8807 28.9203 37.9927 29.0347 38.0985 29.1446C37.8544 29.8134 37.5639 30.4598 37.2309 31.0801L37.1087 30.9178C36.4217 30.0086 35.8298 29.2756 35.3329 28.7189L35.2391 28.6145L35.1706 28.5394L35.0782 28.4391L35.0059 28.3614C34.2462 27.5483 33.0849 26.4072 31.5219 24.9381H31.4966V23.0624H31.5219L31.5219 23.0509ZM12.6671 19.2816L12.7609 19.386L12.8528 19.4866L12.9462 19.5877L13.0483 19.6969C13.292 19.9563 13.5751 20.2478 13.8976 20.5715L14.0091 20.6831L14.2132 20.8861L14.3873 21.058C14.9783 21.6396 15.6752 22.3077 16.4781 23.0624H16.5034V24.9381H16.4781L16.4781 24.9496L16.4652 24.9381L9.02302 24.9382C9.01243 24.7677 9.00469 24.5964 8.99985 24.4244V23.5631C9.00457 23.3955 9.01205 23.2285 9.02223 23.0622L14.3621 23.0624L13.9761 22.714C12.4243 21.3101 11.225 20.1856 10.3782 19.3405L10.2373 19.1992L10.1673 19.1284L10.067 19.0264L9.98127 18.9384C9.9531 18.9094 9.92534 18.8807 9.89798 18.8523C10.1419 18.1829 10.4322 17.5359 10.765 16.915L10.9279 17.1311C11.5993 18.018 12.179 18.7348 12.6671 19.2816ZM33.9307 12.7433C34.0228 12.8246 34.1139 12.9071 34.2039 12.9907L35.0031 13.7898C35.0888 13.8822 35.1733 13.9756 35.2566 14.07L31.4782 17.8484L31.9975 17.8218C34.112 17.716 35.7692 17.6631 36.969 17.6631L37.1265 17.6634L37.2752 17.6643L37.3692 17.6652L37.492 17.6668C37.5324 17.6674 37.5724 17.6681 37.6118 17.6688C37.9089 18.3066 38.1623 18.9688 38.3684 19.6516L38.2335 19.6325C37.0721 19.4696 36.1111 19.3665 35.3501 19.3232L35.21 19.3158L35.1085 19.3111L35.0182 19.3073L34.8781 19.3021C34.4967 19.289 34.0542 19.282 33.5506 19.2812L33.3913 19.2812L33.1045 19.2821L32.861 19.2837C32.0356 19.2904 31.076 19.3108 29.982 19.3446L29.9641 19.3625L28.6377 18.0361L28.6556 18.0183L28.6475 18.0101L28.6647 18.0092L33.9307 12.7433ZM19.323 12.6501L19.3156 12.7902L19.3094 12.9263L19.3057 13.0174L19.3006 13.1588C19.2884 13.5274 19.2819 13.9519 19.281 14.4322L19.2809 14.59C19.2815 15.5294 19.3027 16.6721 19.3444 18.0183L19.3623 18.0361L18.0359 19.3625L18.018 19.3446L18.0099 19.3528L18.0089 19.3355L12.7434 14.07C12.8267 13.9756 12.9112 13.8822 12.9969 13.7898L13.7961 12.9907C13.8861 12.9071 13.9772 12.8246 14.0693 12.7433L17.8482 16.522L17.8216 16.0028L17.7968 15.4955L17.7726 14.9736C17.7005 13.366 17.6639 12.0659 17.6629 11.0733L17.6632 10.8737L17.6637 10.7741C17.6646 10.6394 17.6662 10.5097 17.6686 10.3851C18.3065 10.0874 18.969 9.83358 19.652 9.62714C19.4776 10.8514 19.3679 11.8589 19.323 12.6501ZM24.6164 9C24.7239 9.00434 24.8311 9.00982 24.938 9.01641L24.9379 14.3624L25.2863 13.9764C26.7067 12.4063 27.841 11.1971 28.6894 10.3487L28.801 10.2376L28.9068 10.1331L28.9739 10.0672L29.1075 9.9373C29.1221 9.92318 29.1366 9.90916 29.1511 9.89525C29.8202 10.1396 30.467 10.4303 31.0876 10.7635L30.9786 10.8455C30.0411 11.5521 29.2877 12.1594 28.7186 12.6673L28.6143 12.7612L28.5392 12.8296L28.4642 12.8986L28.3873 12.97C27.5725 13.7291 26.4227 14.8986 24.9379 16.4783V16.5036H23.0621V16.4783L23.0506 16.4783L23.0621 16.4654L23.062 9.01641C23.1689 9.00982 23.2761 9.00434 23.3836 9H24.6164Z" fill="white"/>
</svg>
